<!-- Generated by IcoMoon.io -->
<svg version="1.1" xmlns="http://www.w3.org/2000/svg" width="300" height="300" viewBox="0 0 512 512">
    <title></title>
    <g id="icomoon-ignore">
    </g>
    <path fill="white"
        d="M267 240h-24c-1.65 0-3 1.35-3 3v26c0 1.65 1.35 3 3 3h24c1.65 0 3-1.35 3-3v-26c0-1.65-1.35-3-3-3zM266 268h-22v-24h22v24zM248 258h14v2h-14zM248 262h14v2h-14zM250 249c0-1.656 1.344-3 3-3s3 1.344 3 3c0 1.656-1.344 3-3 3s-3-1.344-3-3zM255 252h-4c-1.65 0-3 0.9-3 2v2h10v-2c0-1.1-1.35-2-3-2z">
    </path>
</svg>